<svg width="151" height="120" viewBox="0 0 151 120" fill="none" xmlns="http://www.w3.org/2000/svg">
<path d="M0 120V87.9827L14.577 83.0369V87.9827L17.7006 86.9414L20.0434 29.4143H24.7288L27.0716 83.8178L29.4143 83.0369V87.9827L43.9913 83.0369V87.9827L58.8286 83.0369V87.9827L61.692 86.9414L64.0347 28.6334H68.7202L71.0629 83.8178L73.4056 83.0369V87.9827L78.872 86.1605V75.7484L91.1063 69.5011V52.0608H90.0651V50.2386H91.1063V49.1974H96.0521V50.2386H97.0933V52.0608H96.0521V69.5011L108.286 75.7484L120.781 69.5011V52.0608H119.74V50.2386H120.781V49.1974H125.466V50.4989H126.508V52.0608H125.466V69.5011L137.701 75.7484V90.846C142.074 89.8048 143.688 92.3211 143.948 93.7093V120H0Z" fill="url(#paint0_linear_38_301)"/>
<circle cx="23.1671" cy="25.2495" r="1.82213" fill="url(#paint1_linear_38_301)"/>
<circle cx="23.4274" cy="22.3861" r="2.60304" fill="url(#paint2_linear_38_301)"/>
<circle cx="27.0716" cy="19.2625" r="3.12364" fill="url(#paint3_linear_38_301)"/>
<circle cx="27.0716" cy="14.577" r="3.12364" fill="url(#paint4_linear_38_301)"/>
<circle cx="29.154" cy="13.0152" r="3.12364" fill="url(#paint5_linear_38_301)"/>
<circle cx="26.2907" cy="9.11065" r="2.86334" fill="url(#paint6_linear_38_301)"/>
<circle cx="32.7983" cy="9.89155" r="2.60304" fill="url(#paint7_linear_38_301)"/>
<circle cx="30.1953" cy="8.32974" r="2.08243" fill="url(#paint8_linear_38_301)"/>
<circle cx="23.948" cy="18.7419" r="2.60304" fill="url(#paint9_linear_38_301)"/>
<circle cx="23.4274" cy="15.0976" r="1.56182" fill="url(#paint10_linear_38_301)"/>
<circle cx="30.1952" cy="17.18" r="1.56182" fill="url(#paint11_linear_38_301)"/>
<circle cx="32.2778" cy="13.0152" r="1.56182" fill="url(#paint12_linear_38_301)"/>
<circle cx="24.4686" cy="13.0152" r="1.56182" fill="url(#paint13_linear_38_301)"/>
<circle cx="66.846" cy="25.4057" r="2.18655" fill="url(#paint14_linear_38_301)"/>
<circle cx="67.1583" cy="21.9697" r="3.12364" fill="url(#paint15_linear_38_301)"/>
<circle cx="71.5315" cy="18.2213" r="3.74837" fill="url(#paint16_linear_38_301)"/>
<circle cx="71.5315" cy="12.5987" r="3.74837" fill="url(#paint17_linear_38_301)"/>
<circle cx="74.0304" cy="10.7245" r="3.74837" fill="url(#paint18_linear_38_301)"/>
<circle cx="70.5943" cy="6.03904" r="3.43601" fill="url(#paint19_linear_38_301)"/>
<circle cx="78.4034" cy="6.97612" r="3.12364" fill="url(#paint20_linear_38_301)"/>
<circle cx="75.2798" cy="5.10194" r="2.49892" fill="url(#paint21_linear_38_301)"/>
<circle cx="67.7831" cy="17.5965" r="3.12364" fill="url(#paint22_linear_38_301)"/>
<circle cx="67.1582" cy="13.2234" r="1.87419" fill="url(#paint23_linear_38_301)"/>
<circle cx="75.2797" cy="15.7223" r="1.87419" fill="url(#paint24_linear_38_301)"/>
<circle cx="77.7787" cy="10.7245" r="1.87419" fill="url(#paint25_linear_38_301)"/>
<circle cx="68.4078" cy="10.7245" r="1.87419" fill="url(#paint26_linear_38_301)"/>
<circle cx="80.9544" cy="7.02821" r="3.90456" fill="url(#paint27_linear_38_301)"/>
<circle cx="84.8589" cy="7.80911" r="2.08243" fill="url(#paint28_linear_38_301)"/>
<circle cx="78.8719" cy="1.82213" r="1.82213" fill="url(#paint29_linear_38_301)"/>
<circle cx="83.0368" cy="2.86332" r="1.82213" fill="url(#paint30_linear_38_301)"/>
<circle cx="83.8178" cy="4.6855" r="2.60304" fill="url(#paint31_linear_38_301)"/>
<circle cx="78.0911" cy="4.6855" r="2.60304" fill="url(#paint32_linear_38_301)"/>
<circle cx="81.7352" cy="4.16487" r="2.60304" fill="url(#paint33_linear_38_301)"/>
<circle cx="124.165" cy="45.0326" r="2.34273" fill="url(#paint34_linear_38_301)"/>
<circle cx="126.247" cy="41.9089" r="3.38395" fill="url(#paint35_linear_38_301)"/>
<circle cx="129.631" cy="36.4425" r="3.64425" fill="url(#paint36_linear_38_301)"/>
<circle cx="131.714" cy="40.0868" r="3.64425" fill="url(#paint37_linear_38_301)"/>
<circle cx="136.659" cy="37.2234" r="4.42516" fill="url(#paint38_linear_38_301)"/>
<circle cx="133.536" cy="30.9762" r="3.90456" fill="url(#paint39_linear_38_301)"/>
<circle cx="130.933" cy="27.3319" r="1.82213" fill="url(#paint40_linear_38_301)"/>
<circle cx="142.646" cy="34.3601" r="2.60304" fill="url(#paint41_linear_38_301)"/>
<circle cx="147.853" cy="27.0716" r="2.60304" fill="url(#paint42_linear_38_301)"/>
<circle cx="141.865" cy="21.0846" r="2.34273" fill="url(#paint43_linear_38_301)"/>
<circle cx="137.701" cy="25.7701" r="4.42516" fill="url(#paint44_linear_38_301)"/>
<circle cx="140.304" cy="30.4556" r="4.42516" fill="url(#paint45_linear_38_301)"/>
<circle cx="143.688" cy="25.5097" r="3.64425" fill="url(#paint46_linear_38_301)"/>
<defs>
<linearGradient id="paint0_linear_38_301" x1="71.974" y1="28.6334" x2="71.974" y2="120" gradientUnits="userSpaceOnUse">
<stop stop-color="#5B511A"/>
<stop offset="1" stop-color="#E0E0E0"/>
</linearGradient>
<linearGradient id="paint1_linear_38_301" x1="23.1671" y1="23.4274" x2="23.1671" y2="27.0716" gradientUnits="userSpaceOnUse">
<stop stop-color="#E0E0E0"/>
<stop offset="1" stop-color="#7A7A7A"/>
</linearGradient>
<linearGradient id="paint2_linear_38_301" x1="23.4274" y1="19.7831" x2="23.4274" y2="24.9892" gradientUnits="userSpaceOnUse">
<stop stop-color="#E0E0E0"/>
<stop offset="1" stop-color="#7A7A7A"/>
</linearGradient>
<linearGradient id="paint3_linear_38_301" x1="27.0716" y1="16.1389" x2="27.0716" y2="22.3861" gradientUnits="userSpaceOnUse">
<stop stop-color="#E0E0E0"/>
<stop offset="1" stop-color="#7A7A7A"/>
</linearGradient>
<linearGradient id="paint4_linear_38_301" x1="27.0716" y1="11.4534" x2="27.0716" y2="17.7007" gradientUnits="userSpaceOnUse">
<stop stop-color="#E0E0E0"/>
<stop offset="1" stop-color="#7A7A7A"/>
</linearGradient>
<linearGradient id="paint5_linear_38_301" x1="29.154" y1="9.89154" x2="29.154" y2="16.1388" gradientUnits="userSpaceOnUse">
<stop stop-color="#E0E0E0"/>
<stop offset="1" stop-color="#7A7A7A"/>
</linearGradient>
<linearGradient id="paint6_linear_38_301" x1="26.2907" y1="6.24731" x2="26.2907" y2="11.974" gradientUnits="userSpaceOnUse">
<stop stop-color="#E0E0E0"/>
<stop offset="1" stop-color="#7A7A7A"/>
</linearGradient>
<linearGradient id="paint7_linear_38_301" x1="32.7983" y1="7.28851" x2="32.7983" y2="12.4946" gradientUnits="userSpaceOnUse">
<stop stop-color="#E0E0E0"/>
<stop offset="1" stop-color="#7A7A7A"/>
</linearGradient>
<linearGradient id="paint8_linear_38_301" x1="30.1953" y1="6.24731" x2="30.1953" y2="10.4122" gradientUnits="userSpaceOnUse">
<stop stop-color="#E0E0E0"/>
<stop offset="1" stop-color="#7A7A7A"/>
</linearGradient>
<linearGradient id="paint9_linear_38_301" x1="23.948" y1="16.1389" x2="23.948" y2="21.3449" gradientUnits="userSpaceOnUse">
<stop stop-color="#E0E0E0"/>
<stop offset="1" stop-color="#7A7A7A"/>
</linearGradient>
<linearGradient id="paint10_linear_38_301" x1="23.4274" y1="13.5358" x2="23.4274" y2="16.6595" gradientUnits="userSpaceOnUse">
<stop stop-color="#E0E0E0"/>
<stop offset="1" stop-color="#7A7A7A"/>
</linearGradient>
<linearGradient id="paint11_linear_38_301" x1="30.1952" y1="15.6182" x2="30.1952" y2="18.7419" gradientUnits="userSpaceOnUse">
<stop stop-color="#E0E0E0"/>
<stop offset="1" stop-color="#7A7A7A"/>
</linearGradient>
<linearGradient id="paint12_linear_38_301" x1="32.2778" y1="11.4534" x2="32.2778" y2="14.577" gradientUnits="userSpaceOnUse">
<stop stop-color="#E0E0E0"/>
<stop offset="1" stop-color="#7A7A7A"/>
</linearGradient>
<linearGradient id="paint13_linear_38_301" x1="24.4686" y1="11.4534" x2="24.4686" y2="14.577" gradientUnits="userSpaceOnUse">
<stop stop-color="#E0E0E0"/>
<stop offset="1" stop-color="#7A7A7A"/>
</linearGradient>
<linearGradient id="paint14_linear_38_301" x1="66.846" y1="23.2191" x2="66.846" y2="27.5922" gradientUnits="userSpaceOnUse">
<stop stop-color="#E0E0E0"/>
<stop offset="1" stop-color="#7A7A7A"/>
</linearGradient>
<linearGradient id="paint15_linear_38_301" x1="67.1583" y1="18.846" x2="67.1583" y2="25.0933" gradientUnits="userSpaceOnUse">
<stop stop-color="#E0E0E0"/>
<stop offset="1" stop-color="#7A7A7A"/>
</linearGradient>
<linearGradient id="paint16_linear_38_301" x1="71.5315" y1="14.4729" x2="71.5315" y2="21.9696" gradientUnits="userSpaceOnUse">
<stop stop-color="#E0E0E0"/>
<stop offset="1" stop-color="#7A7A7A"/>
</linearGradient>
<linearGradient id="paint17_linear_38_301" x1="71.5315" y1="8.85034" x2="71.5315" y2="16.3471" gradientUnits="userSpaceOnUse">
<stop stop-color="#E0E0E0"/>
<stop offset="1" stop-color="#7A7A7A"/>
</linearGradient>
<linearGradient id="paint18_linear_38_301" x1="74.0304" y1="6.97614" x2="74.0304" y2="14.4729" gradientUnits="userSpaceOnUse">
<stop stop-color="#E0E0E0"/>
<stop offset="1" stop-color="#7A7A7A"/>
</linearGradient>
<linearGradient id="paint19_linear_38_301" x1="70.5943" y1="2.60303" x2="70.5943" y2="9.47504" gradientUnits="userSpaceOnUse">
<stop stop-color="#E0E0E0"/>
<stop offset="1" stop-color="#7A7A7A"/>
</linearGradient>
<linearGradient id="paint20_linear_38_301" x1="78.4034" y1="3.85248" x2="78.4034" y2="10.0998" gradientUnits="userSpaceOnUse">
<stop stop-color="#E0E0E0"/>
<stop offset="1" stop-color="#7A7A7A"/>
</linearGradient>
<linearGradient id="paint21_linear_38_301" x1="75.2798" y1="2.60303" x2="75.2798" y2="7.60086" gradientUnits="userSpaceOnUse">
<stop stop-color="#E0E0E0"/>
<stop offset="1" stop-color="#7A7A7A"/>
</linearGradient>
<linearGradient id="paint22_linear_38_301" x1="67.7831" y1="14.4729" x2="67.7831" y2="20.7202" gradientUnits="userSpaceOnUse">
<stop stop-color="#E0E0E0"/>
<stop offset="1" stop-color="#7A7A7A"/>
</linearGradient>
<linearGradient id="paint23_linear_38_301" x1="67.1582" y1="11.3492" x2="67.1582" y2="15.0976" gradientUnits="userSpaceOnUse">
<stop stop-color="#E0E0E0"/>
<stop offset="1" stop-color="#7A7A7A"/>
</linearGradient>
<linearGradient id="paint24_linear_38_301" x1="75.2797" y1="13.8481" x2="75.2797" y2="17.5965" gradientUnits="userSpaceOnUse">
<stop stop-color="#E0E0E0"/>
<stop offset="1" stop-color="#7A7A7A"/>
</linearGradient>
<linearGradient id="paint25_linear_38_301" x1="77.7787" y1="8.85034" x2="77.7787" y2="12.5987" gradientUnits="userSpaceOnUse">
<stop stop-color="#E0E0E0"/>
<stop offset="1" stop-color="#7A7A7A"/>
</linearGradient>
<linearGradient id="paint26_linear_38_301" x1="68.4078" y1="8.85034" x2="68.4078" y2="12.5987" gradientUnits="userSpaceOnUse">
<stop stop-color="#E0E0E0"/>
<stop offset="1" stop-color="#7A7A7A"/>
</linearGradient>
<linearGradient id="paint27_linear_38_301" x1="80.9544" y1="3.12366" x2="80.9544" y2="10.9328" gradientUnits="userSpaceOnUse">
<stop stop-color="#E0E0E0"/>
<stop offset="1" stop-color="#7A7A7A"/>
</linearGradient>
<linearGradient id="paint28_linear_38_301" x1="84.8589" y1="5.72668" x2="84.8589" y2="9.89154" gradientUnits="userSpaceOnUse">
<stop stop-color="#E0E0E0"/>
<stop offset="1" stop-color="#7A7A7A"/>
</linearGradient>
<linearGradient id="paint29_linear_38_301" x1="78.8719" y1="0" x2="78.8719" y2="3.64425" gradientUnits="userSpaceOnUse">
<stop stop-color="#E0E0E0"/>
<stop offset="1" stop-color="#7A7A7A"/>
</linearGradient>
<linearGradient id="paint30_linear_38_301" x1="83.0368" y1="1.0412" x2="83.0368" y2="4.68545" gradientUnits="userSpaceOnUse">
<stop stop-color="#E0E0E0"/>
<stop offset="1" stop-color="#7A7A7A"/>
</linearGradient>
<linearGradient id="paint31_linear_38_301" x1="83.8178" y1="2.08246" x2="83.8178" y2="7.28853" gradientUnits="userSpaceOnUse">
<stop stop-color="#E0E0E0"/>
<stop offset="1" stop-color="#7A7A7A"/>
</linearGradient>
<linearGradient id="paint32_linear_38_301" x1="78.0911" y1="2.08246" x2="78.0911" y2="7.28853" gradientUnits="userSpaceOnUse">
<stop stop-color="#E0E0E0"/>
<stop offset="1" stop-color="#7A7A7A"/>
</linearGradient>
<linearGradient id="paint33_linear_38_301" x1="81.7352" y1="1.56183" x2="81.7352" y2="6.7679" gradientUnits="userSpaceOnUse">
<stop stop-color="#E0E0E0"/>
<stop offset="1" stop-color="#7A7A7A"/>
</linearGradient>
<linearGradient id="paint34_linear_38_301" x1="124.165" y1="42.6898" x2="124.165" y2="47.3753" gradientUnits="userSpaceOnUse">
<stop stop-color="#E0E0E0"/>
<stop offset="1" stop-color="#7A7A7A"/>
</linearGradient>
<linearGradient id="paint35_linear_38_301" x1="126.247" y1="38.525" x2="126.247" y2="45.2929" gradientUnits="userSpaceOnUse">
<stop stop-color="#E0E0E0"/>
<stop offset="1" stop-color="#7A7A7A"/>
</linearGradient>
<linearGradient id="paint36_linear_38_301" x1="129.631" y1="32.7983" x2="129.631" y2="40.0868" gradientUnits="userSpaceOnUse">
<stop stop-color="#E0E0E0"/>
<stop offset="1" stop-color="#7A7A7A"/>
</linearGradient>
<linearGradient id="paint37_linear_38_301" x1="131.714" y1="36.4425" x2="131.714" y2="43.731" gradientUnits="userSpaceOnUse">
<stop stop-color="#E0E0E0"/>
<stop offset="1" stop-color="#7A7A7A"/>
</linearGradient>
<linearGradient id="paint38_linear_38_301" x1="136.659" y1="32.7983" x2="136.659" y2="41.6486" gradientUnits="userSpaceOnUse">
<stop stop-color="#E0E0E0"/>
<stop offset="1" stop-color="#7A7A7A"/>
</linearGradient>
<linearGradient id="paint39_linear_38_301" x1="133.536" y1="27.0716" x2="133.536" y2="34.8807" gradientUnits="userSpaceOnUse">
<stop stop-color="#E0E0E0"/>
<stop offset="1" stop-color="#7A7A7A"/>
</linearGradient>
<linearGradient id="paint40_linear_38_301" x1="130.933" y1="25.5098" x2="130.933" y2="29.154" gradientUnits="userSpaceOnUse">
<stop stop-color="#E0E0E0"/>
<stop offset="1" stop-color="#7A7A7A"/>
</linearGradient>
<linearGradient id="paint41_linear_38_301" x1="142.646" y1="31.7571" x2="142.646" y2="36.9632" gradientUnits="userSpaceOnUse">
<stop stop-color="#E0E0E0"/>
<stop offset="1" stop-color="#7A7A7A"/>
</linearGradient>
<linearGradient id="paint42_linear_38_301" x1="147.853" y1="24.4686" x2="147.853" y2="29.6746" gradientUnits="userSpaceOnUse">
<stop stop-color="#E0E0E0"/>
<stop offset="1" stop-color="#7A7A7A"/>
</linearGradient>
<linearGradient id="paint43_linear_38_301" x1="141.865" y1="18.7419" x2="141.865" y2="23.4273" gradientUnits="userSpaceOnUse">
<stop stop-color="#E0E0E0"/>
<stop offset="1" stop-color="#7A7A7A"/>
</linearGradient>
<linearGradient id="paint44_linear_38_301" x1="137.701" y1="21.3449" x2="137.701" y2="30.1952" gradientUnits="userSpaceOnUse">
<stop stop-color="#E0E0E0"/>
<stop offset="1" stop-color="#7A7A7A"/>
</linearGradient>
<linearGradient id="paint45_linear_38_301" x1="140.304" y1="26.0304" x2="140.304" y2="34.8807" gradientUnits="userSpaceOnUse">
<stop stop-color="#E0E0E0"/>
<stop offset="1" stop-color="#7A7A7A"/>
</linearGradient>
<linearGradient id="paint46_linear_38_301" x1="143.688" y1="21.8655" x2="143.688" y2="29.154" gradientUnits="userSpaceOnUse">
<stop stop-color="#E0E0E0"/>
<stop offset="1" stop-color="#7A7A7A"/>
</linearGradient>
</defs>
</svg>
