<svg width="46" height="75" viewBox="0 0 46 75" fill="none" xmlns="http://www.w3.org/2000/svg">
<path d="M6.10352e-05 74.565V45.565H3.00006V52.5649C5.80006 52.5649 10.1667 54.2316 12.0001 55.0649C14.5001 56.5649 14.0001 53.5649 14.0001 48.065C14.0001 44.065 12.5001 45.0649 10.0001 45.0649V39.065H11.0001V37.065H12.0001V35.565H14.5001V37.065H15.5001V39.065H18.5001L20.5001 32.065V27.565H20.0001V26.565H11.5001V22.565H12.5001V13.565L14.0001 12.065V5.06498L20.0001 3.56498C20.0001 -1.43506 26.0001 -0.935051 26.0001 3.56498L32.5001 5.06498V12.065L33.5001 13.565V22.565H35.0001V26.565H27.0001V27.565H26.0001V32.065L28.0001 39.065H30.5001V37.065H31.5001V35.565H34.5001V37.065H35.5001V39.065H36.0001V44.565C31.2001 44.565 32.0001 46.8983 33.0001 48.065C38.5001 52.065 44.0001 54.065 43.0001 51.065V45.565H46.0001V74.565H43.0001V67.065C40.3334 66.7316 34.6001 65.365 33.0001 62.565C31.4001 59.765 30.6667 61.3983 30.5001 62.565C20.5001 82.565 11.5001 62.565 3.00006 68.065V74.565H6.10352e-05Z" fill="#E0E0E0"/>
</svg>
