<svg width="77" height="105" viewBox="0 0 77 105" fill="none" xmlns="http://www.w3.org/2000/svg">
<rect x="58" y="105" width="19" height="12" transform="rotate(-90 58 105)" fill="#626262"/>
<rect x="55" y="36" width="18" height="42" fill="#767676"/>
<path d="M12.5098 63.2342C14.037 60.5062 17.963 60.5062 19.4902 63.2342L26.523 75.796C28.0158 78.4623 26.0885 81.75 23.0328 81.75H8.96722C5.91148 81.75 3.98423 78.4623 5.47698 75.796L12.5098 63.2342Z" fill="#626262"/>
<rect x="25" y="75" width="18" height="43" transform="rotate(-180 25 75)" fill="#767676"/>
<circle cx="40" cy="33" r="33" transform="rotate(-90 40 33)" fill="#424242"/>
<circle cx="40" cy="33" r="33" transform="rotate(-90 40 33)" fill="url(#paint0_linear_113_3)" fill-opacity="0.2"/>
<g filter="url(#filter0_d_113_3)">
<rect x="53" y="82" width="4" height="22" transform="rotate(-90 53 82)" fill="#626262"/>
</g>
<g filter="url(#filter1_d_113_3)">
<rect x="5" y="77" width="4" height="22" transform="rotate(-90 5 77)" fill="#626262"/>
</g>
<g filter="url(#filter2_d_113_3)">
<rect x="56" y="86" width="4" height="16" transform="rotate(-90 56 86)" fill="#626262"/>
</g>
<defs>
<filter id="filter0_d_113_3" x="51" y="76" width="26" height="8" filterUnits="userSpaceOnUse" color-interpolation-filters="sRGB">
<feFlood flood-opacity="0" result="BackgroundImageFix"/>
<feColorMatrix in="SourceAlpha" type="matrix" values="0 0 0 0 0 0 0 0 0 0 0 0 0 0 0 0 0 0 127 0" result="hardAlpha"/>
<feOffset/>
<feGaussianBlur stdDeviation="1"/>
<feComposite in2="hardAlpha" operator="out"/>
<feColorMatrix type="matrix" values="0 0 0 0 0 0 0 0 0 0 0 0 0 0 0 0 0 0 0.25 0"/>
<feBlend mode="normal" in2="BackgroundImageFix" result="effect1_dropShadow_113_3"/>
<feBlend mode="normal" in="SourceGraphic" in2="effect1_dropShadow_113_3" result="shape"/>
</filter>
<filter id="filter1_d_113_3" x="3" y="71" width="26" height="8" filterUnits="userSpaceOnUse" color-interpolation-filters="sRGB">
<feFlood flood-opacity="0" result="BackgroundImageFix"/>
<feColorMatrix in="SourceAlpha" type="matrix" values="0 0 0 0 0 0 0 0 0 0 0 0 0 0 0 0 0 0 127 0" result="hardAlpha"/>
<feOffset/>
<feGaussianBlur stdDeviation="1"/>
<feComposite in2="hardAlpha" operator="out"/>
<feColorMatrix type="matrix" values="0 0 0 0 0 0 0 0 0 0 0 0 0 0 0 0 0 0 0.36 0"/>
<feBlend mode="normal" in2="BackgroundImageFix" result="effect1_dropShadow_113_3"/>
<feBlend mode="normal" in="SourceGraphic" in2="effect1_dropShadow_113_3" result="shape"/>
</filter>
<filter id="filter2_d_113_3" x="54" y="80" width="20" height="8" filterUnits="userSpaceOnUse" color-interpolation-filters="sRGB">
<feFlood flood-opacity="0" result="BackgroundImageFix"/>
<feColorMatrix in="SourceAlpha" type="matrix" values="0 0 0 0 0 0 0 0 0 0 0 0 0 0 0 0 0 0 127 0" result="hardAlpha"/>
<feOffset/>
<feGaussianBlur stdDeviation="1"/>
<feComposite in2="hardAlpha" operator="out"/>
<feColorMatrix type="matrix" values="0 0 0 0 0 0 0 0 0 0 0 0 0 0 0 0 0 0 0.25 0"/>
<feBlend mode="normal" in2="BackgroundImageFix" result="effect1_dropShadow_113_3"/>
<feBlend mode="normal" in="SourceGraphic" in2="effect1_dropShadow_113_3" result="shape"/>
</filter>
<linearGradient id="paint0_linear_113_3" x1="40" y1="9.83477e-07" x2="40" y2="66" gradientUnits="userSpaceOnUse">
<stop stop-color="white"/>
<stop offset="1"/>
</linearGradient>
</defs>
</svg>
