<svg width="117" height="109" viewBox="0 0 117 109" fill="none" xmlns="http://www.w3.org/2000/svg">
<path d="M117 14.2772C117 -5.69839 81.8049 -3.79599 81.8049 14.2772V107.497H117V14.2772Z" fill="url(#paint0_linear_38_355)"/>
<path fill-rule="evenodd" clip-rule="evenodd" d="M0 28.5366H70.3902V108.439H0V28.5366ZM1.90244 30.4391H5.70732V36.1464H1.90244V30.4391ZM11.4146 30.4391H7.60973V36.1464H11.4146V30.4391ZM13.317 30.4391H17.1219V36.1464H13.317V30.4391ZM22.8292 30.4391H19.0244V36.1464H22.8292V30.4391ZM24.7317 30.4391H28.5366V36.1464H24.7317V30.4391ZM34.2439 30.4391H30.439V36.1464H34.2439V30.4391ZM36.1463 30.4391H39.9512V36.1464H36.1463V30.4391ZM45.6585 30.4391H41.8536V36.1464H45.6585V30.4391ZM47.5609 30.4391H51.3658V36.1464H47.5609V30.4391ZM57.0731 30.4391H53.2683V36.1464H57.0731V30.4391ZM58.9756 30.4391H62.7805V36.1464H58.9756V30.4391ZM68.4878 30.4391H64.6829V36.1464H68.4878V30.4391Z" fill="url(#paint1_linear_38_355)"/>
<defs>
<linearGradient id="paint0_linear_38_355" x1="99.4025" y1="0" x2="99.4025" y2="107.497" gradientUnits="userSpaceOnUse">
<stop stop-color="#2A5466"/>
<stop offset="1" stop-color="#E0E0E0"/>
</linearGradient>
<linearGradient id="paint1_linear_38_355" x1="35.1951" y1="28.5366" x2="35.1951" y2="108.439" gradientUnits="userSpaceOnUse">
<stop stop-color="#2A5466"/>
<stop offset="1" stop-color="#DFDFDF"/>
</linearGradient>
</defs>
</svg>
