<svg width="51" height="51" viewBox="0 0 51 51" fill="none" xmlns="http://www.w3.org/2000/svg">
<circle cx="25.5" cy="25.5" r="25" transform="rotate(-90 25.5 25.5)" fill="#C4C4C4" stroke="#646464"/>
<g filter="url(#filter0_d_113_2)">
<circle cx="26" cy="26" r="8" fill="#7E7E7E"/>
<circle cx="26" cy="26" r="7.5" stroke="#5F5F5F"/>
</g>
<path d="M24.4758 49.265C29.5626 45.0306 30.3788 40.2175 27.5843 34.0748C28.9992 38.4815 27.7353 45.7116 24.4758 49.265Z" fill="black" stroke="url(#paint0_linear_113_2)"/>
<path d="M8.26337 42.0101C14.8545 42.6127 18.8349 39.7865 21.2025 33.467C19.087 37.5834 13.0808 41.8022 8.26337 42.0101Z" fill="black" stroke="url(#paint1_linear_113_2)"/>
<path d="M44.453 10.6116C37.8619 10.009 33.8814 12.8352 31.5139 19.1547C33.6294 15.0383 39.6356 10.8195 44.453 10.6116Z" fill="black" stroke="url(#paint2_linear_113_2)"/>
<path d="M43.5835 41.5665C42.4597 35.044 38.6996 31.9307 31.9826 31.2794C36.5063 32.2574 42.1359 36.9671 43.5835 41.5665Z" fill="black" stroke="url(#paint3_linear_113_2)"/>
<path d="M9.44288 7.99994C8.84022 14.591 11.6664 18.5715 17.986 20.939C13.8695 18.8236 9.65074 12.8173 9.44288 7.99994Z" fill="black" stroke="url(#paint4_linear_113_2)"/>
<path d="M49.453 26.9018C45.2643 21.87 40.5032 21.0626 34.4268 23.8269C38.7859 22.4273 45.938 23.6776 49.453 26.9018Z" fill="black" stroke="url(#paint5_linear_113_2)"/>
<path d="M17.453 25.8592C12.1047 29.6355 7.29687 29.1831 2.14299 24.9403C5.99128 27.4204 13.2233 28.0639 17.453 25.8592Z" fill="black" stroke="url(#paint6_linear_113_2)"/>
<path d="M25.397 17.4434C21.5795 12.0367 22.0368 7.17643 26.326 1.96629C23.8188 5.85659 23.1683 13.1675 25.397 17.4434Z" fill="black" stroke="url(#paint7_linear_113_2)"/>
<defs>
<filter id="filter0_d_113_2" x="14" y="14" width="24" height="24" filterUnits="userSpaceOnUse" color-interpolation-filters="sRGB">
<feFlood flood-opacity="0" result="BackgroundImageFix"/>
<feColorMatrix in="SourceAlpha" type="matrix" values="0 0 0 0 0 0 0 0 0 0 0 0 0 0 0 0 0 0 127 0" result="hardAlpha"/>
<feOffset/>
<feGaussianBlur stdDeviation="2"/>
<feComposite in2="hardAlpha" operator="out"/>
<feColorMatrix type="matrix" values="0 0 0 0 0 0 0 0 0 0 0 0 0 0 0 0 0 0 1 0"/>
<feBlend mode="normal" in2="BackgroundImageFix" result="effect1_dropShadow_113_2"/>
<feBlend mode="normal" in="SourceGraphic" in2="effect1_dropShadow_113_2" result="shape"/>
</filter>
<linearGradient id="paint0_linear_113_2" x1="29.6583" y1="40.6977" x2="22.6812" y2="42.5673" gradientUnits="userSpaceOnUse">
<stop stop-color="#B0B0B0" stop-opacity="0"/>
<stop offset="0.526042" stop-color="#858585"/>
<stop offset="1" stop-color="#B0B0B0" stop-opacity="0"/>
</linearGradient>
<linearGradient id="paint1_linear_113_2" x1="17.9859" y1="39.6166" x2="11.7304" y2="36.005" gradientUnits="userSpaceOnUse">
<stop stop-color="#B0B0B0" stop-opacity="0"/>
<stop offset="0.526042" stop-color="#858585"/>
<stop offset="1" stop-color="#B0B0B0" stop-opacity="0"/>
</linearGradient>
<linearGradient id="paint2_linear_113_2" x1="34.7304" y1="13.0051" x2="40.986" y2="16.6167" gradientUnits="userSpaceOnUse">
<stop stop-color="#B0B0B0" stop-opacity="0"/>
<stop offset="0.526042" stop-color="#858585"/>
<stop offset="1" stop-color="#B0B0B0" stop-opacity="0"/>
</linearGradient>
<linearGradient id="paint3_linear_113_2" x1="38.7552" y1="32.7947" x2="36.8857" y2="39.7719" gradientUnits="userSpaceOnUse">
<stop stop-color="#B0B0B0" stop-opacity="0"/>
<stop offset="0.526042" stop-color="#858585"/>
<stop offset="1" stop-color="#B0B0B0" stop-opacity="0"/>
</linearGradient>
<linearGradient id="paint4_linear_113_2" x1="11.8363" y1="17.7225" x2="15.4479" y2="11.467" gradientUnits="userSpaceOnUse">
<stop stop-color="#B0B0B0" stop-opacity="0"/>
<stop offset="0.526042" stop-color="#858585"/>
<stop offset="1" stop-color="#B0B0B0" stop-opacity="0"/>
</linearGradient>
<linearGradient id="paint5_linear_113_2" x1="40.9782" y1="21.7753" x2="42.8276" y2="28.6771" gradientUnits="userSpaceOnUse">
<stop stop-color="#B0B0B0" stop-opacity="0"/>
<stop offset="0.526042" stop-color="#858585"/>
<stop offset="1" stop-color="#B0B0B0" stop-opacity="0"/>
</linearGradient>
<linearGradient id="paint6_linear_113_2" x1="7.94015" y1="28.6177" x2="11.5128" y2="22.4296" gradientUnits="userSpaceOnUse">
<stop stop-color="#B0B0B0" stop-opacity="0"/>
<stop offset="0.526042" stop-color="#858585"/>
<stop offset="1" stop-color="#B0B0B0" stop-opacity="0"/>
</linearGradient>
<linearGradient id="paint7_linear_113_2" x1="22.6084" y1="7.82673" x2="28.864" y2="11.4384" gradientUnits="userSpaceOnUse">
<stop stop-color="#B0B0B0" stop-opacity="0"/>
<stop offset="0.526042" stop-color="#858585"/>
<stop offset="1" stop-color="#B0B0B0" stop-opacity="0"/>
</linearGradient>
</defs>
</svg>
